<svg xmlns="http://www.w3.org/2000/svg" viewBox="0 0 800 600"><path fill="#085987" stroke="#085987" stroke-width="10" stroke-linecap="round" stroke-linejoin="round" d="M399 959.4L100.9 834.2-21.3 535l125.1-298L403 114.8l298.1 125.1 122.2 299.2-125.1 298z"/><path fill="#FFF" d="M377.6 432.6H144c-6.1 0-11 4.9-11 11V542c0 6.1 4.9 11 11 11h233.6c6.1 0 11-4.9 11-11v-98.4c0-6-4.9-11-11-11zm-236.6 11c0-1.7 1.3-3 3-3h233.6c1.7 0 3 1.3 3 3V542c0 1.7-1.3 3-3 3H144c-1.7 0-3-1.3-3-3v-98.4z"/><path fill="#FFF" d="M155.8 496.9c0 1.7 1.3 3 3 3h24c1.7 0 3-1.3 3-3v-9c0-1.7-1.3-3-3-3h-24c-1.7 0-3 1.3-3 3v9zM155.8 527.2c0 1.5 1.2 2.7 2.7 2.7h19.6c1.5 0 2.7-1.2 2.7-2.7v-9.5c0-1.5-1.2-2.7-2.7-2.7h-19.6c-1.5 0-2.7 1.2-2.7 2.7v9.5zM215.8 527.1c0 1.5 1.2 2.8 2.8 2.8H303c1.5 0 2.8-1.2 2.8-2.8v-9.4c0-1.5-1.2-2.8-2.8-2.8h-84.4c-1.5 0-2.8 1.2-2.8 2.8v9.4zM200.8 496.9c0 1.7 1.3 3 3 3h9c1.7 0 3-1.3 3-3v-9c0-1.7-1.3-3-3-3h-9c-1.7 0-3 1.3-3 3v9zM185.8 466.9c0 1.7 1.3 3 3 3h9c1.7 0 3-1.3 3-3v-9c0-1.7-1.3-3-3-3h-9c-1.7 0-3 1.3-3 3v9zM230.8 496.9c0 1.7 1.3 3 3 3h9c1.7 0 3-1.3 3-3v-9c0-1.7-1.3-3-3-3h-9c-1.7 0-3 1.3-3 3v9zM260.8 496.9c0 1.7 1.3 3 3 3h9c1.7 0 3-1.3 3-3v-9c0-1.7-1.3-3-3-3h-9c-1.7 0-3 1.3-3 3v9zM275.8 466.9c0 1.7 1.3 3 3 3h9c1.7 0 3-1.3 3-3v-9c0-1.7-1.3-3-3-3h-9c-1.7 0-3 1.3-3 3v9zM290.8 496.9c0 1.7 1.3 3 3 3h9c1.7 0 3-1.3 3-3v-9c0-1.7-1.3-3-3-3h-9c-1.7 0-3 1.3-3 3v9zM245.8 466.9c0 1.7 1.3 3 3 3h9c1.7 0 3-1.3 3-3v-9c0-1.7-1.3-3-3-3h-9c-1.7 0-3 1.3-3 3v9zM215.8 466.9c0 1.7 1.3 3 3 3h9c1.7 0 3-1.3 3-3v-9c0-1.7-1.3-3-3-3h-9c-1.7 0-3 1.3-3 3v9zM155.8 466.9c0 1.7 1.3 3 3 3h9c1.7 0 3-1.3 3-3v-9c0-1.7-1.3-3-3-3h-9c-1.7 0-3 1.3-3 3v9zM305.8 466.9c0 1.7 1.3 3 3 3h9c1.7 0 3-1.3 3-3v-9c0-1.7-1.3-3-3-3h-9c-1.7 0-3 1.3-3 3v9zM335.8 466.1c0 2.1 1.7 3.9 3.9 3.9h17.2c2.1 0 3.9-1.7 3.9-3.9v-7.2c0-2.1-1.7-3.9-3.9-3.9h-17.2c-2.1 0-3.9 1.7-3.9 3.9v7.2zM321.1 496.9c0 1.7 1.3 3 3 3h9c1.7 0 3-1.3 3-3v-9c0-1.7-1.3-3-3-3h-9c-1.7 0-3 1.3-3 3v9z"/><path fill="#FFF" d="M350.8 494.7c0 2.9 2.3 5.2 5.2 5.2h4.6c2.9 0 5.2-2.3 5.2-5.2v-34.6c0-2.9-2.3-5.2-5.2-5.2H356c-2.9 0-5.2 2.3-5.2 5.2v34.6zM190.8 526.9c0 1.7 1.3 3 3 3h9c1.7 0 3-1.3 3-3v-9c0-1.7-1.3-3-3-3h-9c-1.7 0-3 1.3-3 3v9zM340.8 527.3c0 1.5 1.2 2.7 2.7 2.7H363c1.5 0 2.7-1.2 2.7-2.7v-9.6c0-1.5-1.2-2.7-2.7-2.7h-19.5c-1.5 0-2.7 1.2-2.7 2.7v9.6zM315.8 526.9c0 1.7 1.3 3 3 3h9c1.7 0 3-1.3 3-3v-9c0-1.7-1.3-3-3-3h-9c-1.7 0-3 1.3-3 3v9zM658 432.6H424.4c-6.1 0-11 4.9-11 11V542c0 6.1 4.9 11 11 11H658c6.1 0 11-4.9 11-11v-98.4c0-6-4.9-11-11-11zm-236.6 11c0-1.7 1.3-3 3-3H658c1.7 0 3 1.3 3 3V542c0 1.7-1.3 3-3 3H424.4c-1.7 0-3-1.3-3-3v-98.4z"/><path fill="#FFF" d="M436.6 496.9c0 1.7 1.3 3 3 3h24c1.7 0 3-1.3 3-3v-9c0-1.7-1.3-3-3-3h-24c-1.7 0-3 1.3-3 3v9z"/><path fill="none" stroke="#FFF" d="M436.6 496.9c0 1.7 1.3 3 3 3h24c1.7 0 3-1.3 3-3v-9c0-1.7-1.3-3-3-3h-24c-1.7 0-3 1.3-3 3v9z"/><path fill="#FFF" d="M436.5 527.2c0 1.5 1.2 2.7 2.7 2.7h19.6c1.5 0 2.7-1.2 2.7-2.7v-9.5c0-1.5-1.2-2.7-2.7-2.7h-19.6c-1.5 0-2.7 1.2-2.7 2.7v9.5z"/><path fill="none" stroke="#FFF" d="M436.5 527.2c0 1.5 1.2 2.7 2.7 2.7h19.6c1.5 0 2.7-1.2 2.7-2.7v-9.5c0-1.5-1.2-2.7-2.7-2.7h-19.6c-1.5 0-2.7 1.2-2.7 2.7v9.5z"/><path fill="#FFF" d="M496.5 527.1c0 1.5 1.2 2.8 2.8 2.8h84.4c1.5 0 2.8-1.2 2.8-2.8v-9.4c0-1.5-1.2-2.8-2.8-2.8h-84.4c-1.5 0-2.8 1.2-2.8 2.8v9.4z"/><path fill="none" stroke="#FFF" d="M496.5 527.1c0 1.5 1.2 2.8 2.8 2.8h84.4c1.5 0 2.8-1.2 2.8-2.8v-9.4c0-1.5-1.2-2.8-2.8-2.8h-84.4c-1.5 0-2.8 1.2-2.8 2.8v9.4z"/><path fill="#FFF" d="M481.5 496.9c0 1.7 1.3 3 3 3h9c1.7 0 3-1.3 3-3v-9c0-1.7-1.3-3-3-3h-9c-1.7 0-3 1.3-3 3v9z"/><path fill="none" stroke="#FFF" d="M481.5 496.9c0 1.7 1.3 3 3 3h9c1.7 0 3-1.3 3-3v-9c0-1.7-1.3-3-3-3h-9c-1.7 0-3 1.3-3 3v9z"/><path fill="#FFF" d="M466.5 466.9c0 1.7 1.3 3 3 3h9c1.7 0 3-1.3 3-3v-9c0-1.7-1.3-3-3-3h-9c-1.7 0-3 1.3-3 3v9z"/><path fill="none" stroke="#FFF" d="M466.5 466.9c0 1.7 1.3 3 3 3h9c1.7 0 3-1.3 3-3v-9c0-1.7-1.3-3-3-3h-9c-1.7 0-3 1.3-3 3v9z"/><path fill="#FFF" d="M511.5 496.9c0 1.7 1.3 3 3 3h9c1.7 0 3-1.3 3-3v-9c0-1.7-1.3-3-3-3h-9c-1.7 0-3 1.3-3 3v9z"/><path fill="none" stroke="#FFF" d="M511.5 496.9c0 1.7 1.3 3 3 3h9c1.7 0 3-1.3 3-3v-9c0-1.7-1.3-3-3-3h-9c-1.7 0-3 1.3-3 3v9z"/><path fill="#FFF" d="M541.5 496.9c0 1.7 1.3 3 3 3h9c1.7 0 3-1.3 3-3v-9c0-1.7-1.3-3-3-3h-9c-1.7 0-3 1.3-3 3v9z"/><path fill="none" stroke="#FFF" d="M541.5 496.9c0 1.7 1.3 3 3 3h9c1.7 0 3-1.3 3-3v-9c0-1.7-1.3-3-3-3h-9c-1.7 0-3 1.3-3 3v9z"/><path fill="#FFF" d="M556.5 466.9c0 1.7 1.3 3 3 3h9c1.7 0 3-1.3 3-3v-9c0-1.7-1.3-3-3-3h-9c-1.7 0-3 1.3-3 3v9z"/><path fill="none" stroke="#FFF" d="M556.5 466.9c0 1.7 1.3 3 3 3h9c1.7 0 3-1.3 3-3v-9c0-1.7-1.3-3-3-3h-9c-1.7 0-3 1.3-3 3v9z"/><path fill="#FFF" d="M571.5 496.9c0 1.7 1.3 3 3 3h9c1.7 0 3-1.3 3-3v-9c0-1.7-1.3-3-3-3h-9c-1.7 0-3 1.3-3 3v9z"/><path fill="none" stroke="#FFF" d="M571.5 496.9c0 1.7 1.3 3 3 3h9c1.7 0 3-1.3 3-3v-9c0-1.7-1.3-3-3-3h-9c-1.7 0-3 1.3-3 3v9z"/><path fill="#FFF" d="M526.5 466.9c0 1.7 1.3 3 3 3h9c1.7 0 3-1.3 3-3v-9c0-1.7-1.3-3-3-3h-9c-1.7 0-3 1.3-3 3v9z"/><path fill="none" stroke="#FFF" d="M526.5 466.9c0 1.7 1.3 3 3 3h9c1.7 0 3-1.3 3-3v-9c0-1.7-1.3-3-3-3h-9c-1.7 0-3 1.3-3 3v9z"/><path fill="#FFF" d="M496.5 466.9c0 1.7 1.3 3 3 3h9c1.7 0 3-1.3 3-3v-9c0-1.7-1.3-3-3-3h-9c-1.7 0-3 1.3-3 3v9z"/><path fill="none" stroke="#FFF" d="M496.5 466.9c0 1.7 1.3 3 3 3h9c1.7 0 3-1.3 3-3v-9c0-1.7-1.3-3-3-3h-9c-1.7 0-3 1.3-3 3v9z"/><path fill="#FFF" d="M436.5 466.9c0 1.7 1.3 3 3 3h9c1.7 0 3-1.3 3-3v-9c0-1.7-1.3-3-3-3h-9c-1.7 0-3 1.3-3 3v9z"/><path fill="none" stroke="#FFF" d="M436.5 466.9c0 1.7 1.3 3 3 3h9c1.7 0 3-1.3 3-3v-9c0-1.7-1.3-3-3-3h-9c-1.7 0-3 1.3-3 3v9z"/><path fill="#FFF" d="M586.5 466.9c0 1.7 1.3 3 3 3h9c1.7 0 3-1.3 3-3v-9c0-1.7-1.3-3-3-3h-9c-1.7 0-3 1.3-3 3v9z"/><path fill="none" stroke="#FFF" d="M586.5 466.9c0 1.7 1.3 3 3 3h9c1.7 0 3-1.3 3-3v-9c0-1.7-1.3-3-3-3h-9c-1.7 0-3 1.3-3 3v9z"/><path fill="#FFF" d="M616.5 466.1c0 2.1 1.7 3.9 3.9 3.9h17.2c2.1 0 3.9-1.7 3.9-3.9v-7.2c0-2.1-1.7-3.9-3.9-3.9h-17.2c-2.1 0-3.9 1.7-3.9 3.9v7.2z"/><path fill="none" stroke="#FFF" d="M616.5 466.1c0 2.1 1.7 3.9 3.9 3.9h17.2c2.1 0 3.9-1.7 3.9-3.9v-7.2c0-2.1-1.7-3.9-3.9-3.9h-17.2c-2.1 0-3.9 1.7-3.9 3.9v7.2z"/><path fill="#FFF" d="M601.8 496.9c0 1.7 1.3 3 3 3h9c1.7 0 3-1.3 3-3v-9c0-1.7-1.3-3-3-3h-9c-1.7 0-3 1.3-3 3v9z"/><path fill="none" stroke="#FFF" d="M601.8 496.9c0 1.7 1.3 3 3 3h9c1.7 0 3-1.3 3-3v-9c0-1.7-1.3-3-3-3h-9c-1.7 0-3 1.3-3 3v9z"/><path fill="#FFF" d="M631.5 494.7c0 2.9 2.3 5.2 5.2 5.2h4.6c2.9 0 5.2-2.3 5.2-5.2v-34.6c0-2.9-2.3-5.2-5.2-5.2h-4.6c-2.9 0-5.2 2.3-5.2 5.2v34.6z"/><path fill="none" stroke="#FFF" d="M631.5 494.7c0 2.9 2.3 5.2 5.2 5.2h4.6c2.9 0 5.2-2.3 5.2-5.2v-34.6c0-2.9-2.3-5.2-5.2-5.2h-4.6c-2.9 0-5.2 2.3-5.2 5.2v34.6z"/><path fill="#FFF" d="M471.5 526.9c0 1.7 1.3 3 3 3h9c1.7 0 3-1.3 3-3v-9c0-1.7-1.3-3-3-3h-9c-1.7 0-3 1.3-3 3v9z"/><path fill="none" stroke="#FFF" d="M471.5 526.9c0 1.7 1.3 3 3 3h9c1.7 0 3-1.3 3-3v-9c0-1.7-1.3-3-3-3h-9c-1.7 0-3 1.3-3 3v9z"/><path fill="#FFF" d="M621.5 527.3c0 1.5 1.2 2.7 2.7 2.7h19.5c1.5 0 2.7-1.2 2.7-2.7v-9.6c0-1.5-1.2-2.7-2.7-2.7h-19.5c-1.5 0-2.7 1.2-2.7 2.7v9.6z"/><path fill="none" stroke="#FFF" d="M621.5 527.3c0 1.5 1.2 2.7 2.7 2.7h19.5c1.5 0 2.7-1.2 2.7-2.7v-9.6c0-1.5-1.2-2.7-2.7-2.7h-19.5c-1.5 0-2.7 1.2-2.7 2.7v9.6z"/><path fill="#FFF" d="M596.5 526.9c0 1.7 1.3 3 3 3h9c1.7 0 3-1.3 3-3v-9c0-1.7-1.3-3-3-3h-9c-1.7 0-3 1.3-3 3v9z"/><path fill="none" stroke="#FFF" d="M596.5 526.9c0 1.7 1.3 3 3 3h9c1.7 0 3-1.3 3-3v-9c0-1.7-1.3-3-3-3h-9c-1.7 0-3 1.3-3 3v9z"/><path fill="#FFF" d="M517.6 292.6H284c-6.1 0-11 4.9-11 11V402c0 6.1 4.9 11 11 11h233.6c6.1 0 11-4.9 11-11v-98.4c0-6-4.9-11-11-11zm-236.6 11c0-1.7 1.3-3 3-3h233.6c1.7 0 3 1.3 3 3V402c0 1.7-1.3 3-3 3H284c-1.7 0-3-1.3-3-3v-98.4z"/><path fill="#FFF" d="M295.8 356.9c0 1.7 1.3 3 3 3h24c1.7 0 3-1.3 3-3v-9c0-1.7-1.3-3-3-3h-24c-1.7 0-3 1.3-3 3v9zM295.8 387.2c0 1.5 1.2 2.7 2.7 2.7h19.6c1.5 0 2.7-1.2 2.7-2.7v-9.5c0-1.5-1.2-2.7-2.7-2.7h-19.6c-1.5 0-2.7 1.2-2.7 2.7v9.5z"/><g><path fill="#FFF" d="M355.8 387.1c0 1.5 1.2 2.8 2.8 2.8H443c1.5 0 2.8-1.2 2.8-2.8v-9.4c0-1.5-1.2-2.8-2.8-2.8h-84.4c-1.5 0-2.8 1.2-2.8 2.8v9.4z"/></g><g><path fill="#FFF" d="M340.8 356.9c0 1.7 1.3 3 3 3h9c1.7 0 3-1.3 3-3v-9c0-1.7-1.3-3-3-3h-9c-1.7 0-3 1.3-3 3v9z"/></g><g><path fill="#FFF" d="M325.8 326.9c0 1.7 1.3 3 3 3h9c1.7 0 3-1.3 3-3v-9c0-1.7-1.3-3-3-3h-9c-1.7 0-3 1.3-3 3v9z"/></g><g><path fill="#FFF" d="M370.8 356.9c0 1.7 1.3 3 3 3h9c1.7 0 3-1.3 3-3v-9c0-1.7-1.3-3-3-3h-9c-1.7 0-3 1.3-3 3v9z"/></g><g><path fill="#FFF" d="M400.8 356.9c0 1.7 1.3 3 3 3h9c1.7 0 3-1.3 3-3v-9c0-1.7-1.3-3-3-3h-9c-1.7 0-3 1.3-3 3v9z"/></g><g><path fill="#FFF" d="M415.8 326.9c0 1.7 1.3 3 3 3h9c1.7 0 3-1.3 3-3v-9c0-1.7-1.3-3-3-3h-9c-1.7 0-3 1.3-3 3v9z"/></g><g><path fill="#FFF" d="M430.8 356.9c0 1.7 1.3 3 3 3h9c1.7 0 3-1.3 3-3v-9c0-1.7-1.3-3-3-3h-9c-1.7 0-3 1.3-3 3v9z"/></g><g><path fill="#FFF" d="M385.8 326.9c0 1.7 1.3 3 3 3h9c1.7 0 3-1.3 3-3v-9c0-1.7-1.3-3-3-3h-9c-1.7 0-3 1.3-3 3v9z"/></g><g><path fill="#FFF" d="M355.8 326.9c0 1.7 1.3 3 3 3h9c1.7 0 3-1.3 3-3v-9c0-1.7-1.3-3-3-3h-9c-1.7 0-3 1.3-3 3v9z"/></g><g><path fill="#FFF" d="M295.8 326.9c0 1.7 1.3 3 3 3h9c1.7 0 3-1.3 3-3v-9c0-1.7-1.3-3-3-3h-9c-1.7 0-3 1.3-3 3v9z"/></g><g><path fill="#FFF" d="M445.8 326.9c0 1.7 1.3 3 3 3h9c1.7 0 3-1.3 3-3v-9c0-1.7-1.3-3-3-3h-9c-1.7 0-3 1.3-3 3v9z"/></g><g><path fill="#FFF" d="M475.8 326.1c0 2.1 1.7 3.9 3.9 3.9h17.2c2.1 0 3.9-1.7 3.9-3.9v-7.2c0-2.1-1.7-3.9-3.9-3.9h-17.2c-2.1 0-3.9 1.7-3.9 3.9v7.2z"/></g><g><path fill="#FFF" d="M461.1 356.9c0 1.7 1.3 3 3 3h9c1.7 0 3-1.3 3-3v-9c0-1.7-1.3-3-3-3h-9c-1.7 0-3 1.3-3 3v9z"/></g><g><path fill="#FFF" d="M490.8 354.7c0 2.9 2.3 5.2 5.2 5.2h4.6c2.9 0 5.2-2.3 5.2-5.2v-34.6c0-2.9-2.3-5.2-5.2-5.2H496c-2.9 0-5.2 2.3-5.2 5.2v34.6z"/></g><g><path fill="#FFF" d="M330.8 386.9c0 1.7 1.3 3 3 3h9c1.7 0 3-1.3 3-3v-9c0-1.7-1.3-3-3-3h-9c-1.7 0-3 1.3-3 3v9z"/></g><g><path fill="#FFF" d="M480.8 387.3c0 1.5 1.2 2.7 2.7 2.7H503c1.5 0 2.7-1.2 2.7-2.7v-9.6c0-1.5-1.2-2.7-2.7-2.7h-19.5c-1.5 0-2.7 1.2-2.7 2.7v9.6z"/></g><g><path fill="#FFF" d="M455.8 386.9c0 1.7 1.3 3 3 3h9c1.7 0 3-1.3 3-3v-9c0-1.7-1.3-3-3-3h-9c-1.7 0-3 1.3-3 3v9z"/></g><g fill="#FFF"><path d="M148 633c0 8.7-2.2 15.5-6.5 20.2s-10.6 7-18.6 7-14.3-2.3-18.6-7-6.5-11.4-6.5-20.2c0-8.8 2.2-15.5 6.5-20.1 4.3-4.6 10.6-7 18.7-7s14.3 2.3 18.6 7c4.3 4.6 6.4 11.3 6.4 20.1zm-38.5 0c0 5.9 1.1 10.3 3.4 13.3 2.2 3 5.6 4.5 10 4.5 8.9 0 13.4-5.9 13.4-17.8s-4.4-17.8-13.3-17.8c-4.5 0-7.8 1.5-10.1 4.5-2.3 2.9-3.4 7.4-3.4 13.3zM180.3 660.2c-4.7 0-8.5-1.7-11.2-5.2h-.6c.4 3.4.6 5.3.6 5.9v16.4h-11v-58.2h9l1.6 5.2h.5c2.6-4 6.4-6 11.5-6 4.8 0 8.5 1.8 11.2 5.5 2.7 3.7 4 8.8 4 15.4 0 4.3-.6 8.1-1.9 11.2s-3.1 5.6-5.4 7.3c-2.4 1.6-5.2 2.5-8.3 2.5zm-3.3-33.1c-2.7 0-4.7.8-6 2.5-1.3 1.7-1.9 4.4-2 8.3v1.2c0 4.3.6 7.4 1.9 9.3 1.3 1.9 3.3 2.8 6.1 2.8 4.9 0 7.4-4.1 7.4-12.2 0-4-.6-7-1.8-8.9-1-2-3-3-5.6-3zM223.2 660.2c-6.5 0-11.6-1.8-15.2-5.4-3.7-3.6-5.5-8.7-5.5-15.2 0-6.8 1.7-12 5.1-15.7 3.4-3.7 8.1-5.5 14-5.5 5.7 0 10.2 1.6 13.3 4.9s4.8 7.7 4.8 13.5v5.3h-26.1c.1 3.1 1 5.6 2.8 7.3 1.7 1.8 4.2 2.6 7.3 2.6 2.4 0 4.7-.3 6.9-.8s4.4-1.3 6.8-2.4v8.5c-1.9 1-4 1.7-6.2 2.1-2.2.5-4.8.8-8 .8zm-1.5-34.1c-2.3 0-4.2.7-5.5 2.2-1.3 1.5-2.1 3.6-2.3 6.3h15.5c0-2.7-.8-4.8-2.1-6.3-1.4-1.4-3.3-2.2-5.6-2.2zM285.9 659.5h-11v-23.6c0-2.9-.5-5.1-1.6-6.6-1-1.5-2.7-2.2-5-2.2-3.1 0-5.3 1-6.7 3.1-1.4 2.1-2.1 5.5-2.1 10.2v19h-11V619h8.4l1.5 5.2h.6c1.2-2 2.9-3.4 5.1-4.4 2.2-1 4.6-1.5 7.4-1.5 4.7 0 8.3 1.3 10.7 3.8 2.4 2.5 3.6 6.2 3.6 11v26.4zM318.5 659.5h-11.2V616H293v-9.3h39.9v9.3h-14.3v43.5zM358.4 660.2c-6.5 0-11.6-1.8-15.2-5.4-3.7-3.6-5.5-8.7-5.5-15.2 0-6.8 1.7-12 5.1-15.7 3.4-3.7 8.1-5.5 14-5.5 5.7 0 10.2 1.6 13.3 4.9s4.8 7.7 4.8 13.5v5.3h-26.1c.1 3.1 1 5.6 2.8 7.3 1.7 1.8 4.2 2.6 7.3 2.6 2.4 0 4.7-.3 6.9-.8s4.4-1.3 6.8-2.4v8.5c-1.9 1-4 1.7-6.2 2.1-2.1.5-4.8.8-8 .8zm-1.5-34.1c-2.3 0-4.2.7-5.5 2.2-1.3 1.5-2.1 3.6-2.3 6.3h15.5c0-2.7-.8-4.8-2.1-6.3-1.4-1.4-3.3-2.2-5.6-2.2zM400.3 660.2c-12.6 0-18.9-6.9-18.9-20.7 0-6.9 1.7-12.1 5.1-15.7 3.4-3.6 8.3-5.4 14.7-5.4 4.7 0 8.9.9 12.6 2.7l-3.3 8.5c-1.7-.7-3.3-1.3-4.8-1.7-1.5-.4-3-.7-4.5-.7-5.7 0-8.6 4.1-8.6 12.2 0 7.9 2.9 11.9 8.6 11.9 2.1 0 4.1-.3 5.9-.8 1.8-.6 3.6-1.5 5.4-2.7v9.4c-1.8 1.1-3.6 1.9-5.4 2.3-1.8.5-4.1.7-6.8.7zM459.2 659.5h-11v-23.6c0-5.8-2.2-8.7-6.5-8.7-3.1 0-5.3 1-6.7 3.1s-2.1 5.5-2.1 10.2v19h-11v-56.2h11v11.5c0 .9-.1 3-.3 6.3l-.3 3.3h.6c2.5-4 6.4-5.9 11.7-5.9 4.7 0 8.3 1.3 10.8 3.8 2.5 2.6 3.7 6.2 3.7 11v26.2zM502.6 644.8c0 4.8-1.7 8.5-5.1 11.3-3.4 2.7-8.2 4.1-14.3 4.1-5.6 0-10.6-1.1-15-3.2v-10.4c3.6 1.6 6.6 2.7 9.1 3.4 2.5.7 4.7 1 6.8 1 2.5 0 4.3-.5 5.7-1.4 1.3-.9 2-2.3 2-4.2 0-1-.3-2-.9-2.8-.6-.8-1.4-1.6-2.5-2.3-1.1-.7-3.4-1.9-6.8-3.6-3.2-1.5-5.6-3-7.3-4.4-1.6-1.4-2.9-3-3.9-4.9-1-1.9-1.4-4-1.4-6.5 0-4.7 1.6-8.3 4.8-11 3.2-2.7 7.5-4 13.1-4 2.7 0 5.4.3 7.9 1s5.1 1.6 7.8 2.7l-3.6 8.7c-2.8-1.2-5.1-2-7-2.4-1.8-.5-3.7-.7-5.4-.7-2.1 0-3.7.5-4.9 1.5-1.1 1-1.7 2.3-1.7 3.9 0 1 .2 1.8.7 2.6.5.7 1.2 1.4 2.2 2.1 1 .7 3.4 1.9 7.1 3.7 4.9 2.4 8.3 4.7 10.2 7.1 1.5 2.3 2.4 5.2 2.4 8.7zM527.7 660.2c-12.6 0-18.9-6.9-18.9-20.7 0-6.9 1.7-12.1 5.1-15.7 3.4-3.6 8.3-5.4 14.7-5.4 4.7 0 8.9.9 12.6 2.7l-3.3 8.5c-1.7-.7-3.3-1.3-4.8-1.7-1.5-.4-3-.7-4.5-.7-5.7 0-8.6 4.1-8.6 12.2 0 7.9 2.9 11.9 8.6 11.9 2.1 0 4.1-.3 5.9-.8 1.8-.6 3.6-1.5 5.4-2.7v9.4c-1.8 1.1-3.6 1.9-5.4 2.3-1.7.5-4 .7-6.8.7zM586.6 659.5h-11v-23.6c0-5.8-2.2-8.7-6.5-8.7-3.1 0-5.3 1-6.7 3.1s-2.1 5.5-2.1 10.2v19h-11v-56.2h11v11.5c0 .9-.1 3-.3 6.3l-.3 3.3h.6c2.5-4 6.4-5.9 11.7-5.9 4.7 0 8.3 1.3 10.8 3.8 2.5 2.6 3.7 6.2 3.7 11v26.2zM634.7 639.2c0 6.6-1.7 11.7-5.2 15.4-3.5 3.7-8.3 5.6-14.5 5.6-3.9 0-7.3-.8-10.3-2.5-3-1.7-5.2-4.1-6.8-7.3s-2.4-6.9-2.4-11.1c0-6.6 1.7-11.7 5.2-15.4 3.4-3.7 8.3-5.5 14.5-5.5 3.9 0 7.3.8 10.3 2.5 3 1.7 5.2 4.1 6.8 7.3 1.6 3 2.4 6.7 2.4 11zm-27.9 0c0 4 .7 7 2 9.1 1.3 2 3.5 3.1 6.4 3.1 2.9 0 5.1-1 6.3-3.1 1.3-2 1.9-5.1 1.9-9.1s-.7-7-2-9-3.4-3-6.4-3c-2.9 0-5.1 1-6.4 3-1.2 2-1.8 5-1.8 9zM680.5 639.2c0 6.6-1.7 11.7-5.2 15.4-3.5 3.7-8.3 5.6-14.5 5.6-3.9 0-7.3-.8-10.3-2.5-3-1.7-5.2-4.1-6.8-7.3s-2.4-6.9-2.4-11.1c0-6.6 1.7-11.7 5.2-15.4 3.4-3.7 8.3-5.5 14.5-5.5 3.9 0 7.3.8 10.3 2.5 3 1.7 5.2 4.1 6.8 7.3 1.6 3 2.4 6.7 2.4 11zm-27.9 0c0 4 .7 7 2 9.1 1.3 2 3.5 3.1 6.4 3.1 2.9 0 5.1-1 6.3-3.1 1.3-2 1.9-5.1 1.9-9.1s-.7-7-2-9-3.4-3-6.4-3c-2.9 0-5.1 1-6.4 3-1.2 2-1.8 5-1.8 9zM700.6 659.5h-11v-56.2h11v56.2z"/></g><g fill="#FFF"><path d="M457.1 707.5V697c0-4.3-3.5-7.7-7.7-7.7-4.3 0-7.7 3.5-7.7 7.7v43.1c0 4.3 3.5 7.7 7.7 7.7 4.3 0 7.7-3.5 7.7-7.7V731h5.1v9.1c0 7.1-5.7 12.9-12.9 12.9s-12.9-5.7-12.9-12.9V697c0-7.1 5.7-12.9 12.9-12.9s12.9 5.7 12.9 12.9v9.9l-5.1.6zM469.2 713.8c0-5.9 4.8-10.7 10.7-10.7 5.9 0 10.7 4.8 10.7 10.7v27.9c0 5.9-4.8 10.7-10.7 10.7-5.9 0-10.7-4.8-10.7-10.7v-27.9zm5.2 28c0 3.1 2.5 5.5 5.5 5.5 3.1 0 5.5-2.5 5.5-5.5v-27.9c0-3.1-2.5-5.5-5.5-5.5-3.1 0-5.5 2.5-5.5 5.5v27.9zM498.5 752v-48.3h3.6l.9 3.8c1.7-2.6 4.5-4.3 7.5-4.3 5.1 0 9.4 4.8 9.4 10.7V752h-5.1v-38.1c0-3.1-2.5-5.5-5.5-5.5s-5.5 2.5-5.5 5.5V752h-5.3zM525.1 703.6h5.3v-9c0-5.2 4.3-9.5 9.5-9.5h1.9v5.1h-1.9c-2.4 0-4.4 2-4.4 4.4v9h6.2v5.1h-6.2V752h-5.1v-43.2h-5.3v-5.2zM567.7 735.4v6.3c0 5.9-4.8 10.7-10.7 10.7-5.9 0-10.7-4.8-10.7-10.7v-27.9c0-5.9 4.8-10.7 10.7-10.7 5.9 0 10.7 4.8 10.7 10.7v14.8h-16.2v13.1c0 3.1 2.5 5.5 5.5 5.5 3.1 0 5.5-2.5 5.5-5.5V736l5.2-.6zm-16.2-11.9h11.1v-9.7c0-3.1-2.5-5.5-5.5-5.5-3.1 0-5.5 2.5-5.5 5.5v9.7zM590 708.3h-3.7c-3.4 0-5.9 2.7-5.9 6V752h-5.1v-48.3h3.6l.9 3.8c1.7-2.6 5-4.3 10.3-4.3v5.1zM615.7 735.4v6.3c0 5.9-4.8 10.7-10.7 10.7-5.9 0-10.7-4.8-10.7-10.7v-27.9c0-5.9 4.8-10.7 10.7-10.7 5.9 0 10.7 4.8 10.7 10.7v14.8h-16.2v13.1c0 3.1 2.5 5.5 5.5 5.5 3.1 0 5.5-2.5 5.5-5.5V736l5.2-.6zm-16.3-11.9h11.1v-9.7c0-3.1-2.5-5.5-5.5-5.5-3.1 0-5.5 2.5-5.5 5.5v9.7zM623.2 752v-48.3h3.6l.9 3.8c1.7-2.6 4.5-4.3 7.5-4.3 5.1 0 9.4 4.8 9.4 10.7V752h-5.1v-38.1c0-3.1-2.5-5.5-5.5-5.5-3.1 0-5.5 2.5-5.5 5.5V752h-5.3zM673.8 736v5.7c0 5.9-4.8 10.7-10.7 10.7-5.9 0-10.7-4.8-10.7-10.7v-27.9c0-5.9 4.8-10.7 10.7-10.7 5.9 0 10.7 4.8 10.7 10.7v5.6l-5.1.6v-6.2c0-3.1-2.5-5.5-5.5-5.5-3.1 0-5.5 2.5-5.5 5.5v27.9c0 3.1 2.5 5.5 5.5 5.5 3.1 0 5.5-2.5 5.5-5.5V736h5.1zM701.8 735.4v6.3c0 5.9-4.8 10.7-10.7 10.7-5.9 0-10.7-4.8-10.7-10.7v-27.9c0-5.9 4.8-10.7 10.7-10.7 5.9 0 10.7 4.8 10.7 10.7v14.8h-16.2v13.1c0 3.1 2.5 5.5 5.5 5.5 3.1 0 5.5-2.5 5.5-5.5V736l5.2-.6zm-16.3-11.9h11.1v-9.7c0-3.1-2.5-5.5-5.5-5.5-3.1 0-5.5 2.5-5.5 5.5v9.7z"/></g></svg>