<?xml version="1.0" encoding="utf-8"?>
<!-- Generator: Adobe Illustrator 18.0.0, SVG Export Plug-In . SVG Version: 6.00 Build 0)  -->
<!DOCTYPE svg PUBLIC "-//W3C//DTD SVG 1.1//EN" "http://www.w3.org/Graphics/SVG/1.1/DTD/svg11.dtd">
<svg version="1.1" id="Layer_4" xmlns="http://www.w3.org/2000/svg" xmlns:xlink="http://www.w3.org/1999/xlink" x="0px" y="0px"
	 viewBox="0 0 800 600" enable-background="new 0 0 800 600" xml:space="preserve">
<g>
	<polygon fill="#085987" stroke="#085987" stroke-width="10" stroke-linecap="round" stroke-linejoin="round" points="399,959.4 
		100.9,834.2 -21.3,535 103.8,237 403,114.8 701.1,239.9 823.3,539.1 698.2,837.1 	"/>
	<g>
		<path fill="#FFFFFF" d="M377.6,432.6H144c-6.1,0-11,4.9-11,11V542c0,6.1,4.9,11,11,11h233.6c6.1,0,11-4.9,11-11v-98.4
			C388.6,437.6,383.7,432.6,377.6,432.6L377.6,432.6z M141,443.6c0-1.7,1.3-3,3-3h233.6c1.7,0,3,1.3,3,3V542l0,0l0,0
			c0,1.7-1.3,3-3,3H144c-1.7,0-3-1.3-3-3V443.6L141,443.6L141,443.6z"/>
	</g>
	<g>
		<path fill="#FFFFFF" d="M155.8,496.9c0,1.7,1.3,3,3,3h24c1.7,0,3-1.3,3-3v-9c0-1.7-1.3-3-3-3h-24c-1.7,0-3,1.3-3,3V496.9z"/>
	</g>
	<g>
		<path fill="#FFFFFF" d="M155.8,527.2c0,1.5,1.2,2.7,2.7,2.7h19.6c1.5,0,2.7-1.2,2.7-2.7v-9.5c0-1.5-1.2-2.7-2.7-2.7h-19.6
			c-1.5,0-2.7,1.2-2.7,2.7V527.2z"/>
	</g>
	<g>
		<path fill="#FFFFFF" d="M215.8,527.1c0,1.5,1.2,2.8,2.8,2.8h84.4c1.5,0,2.8-1.2,2.8-2.8v-9.4c0-1.5-1.2-2.8-2.8-2.8h-84.4
			c-1.5,0-2.8,1.2-2.8,2.8V527.1z"/>
	</g>
	<g>
		<path fill="#FFFFFF" d="M200.8,496.9c0,1.7,1.3,3,3,3h9c1.7,0,3-1.3,3-3v-9c0-1.7-1.3-3-3-3h-9c-1.7,0-3,1.3-3,3V496.9z"/>
	</g>
	<g>
		<path fill="#FFFFFF" d="M185.8,466.9c0,1.7,1.3,3,3,3h9c1.7,0,3-1.3,3-3v-9c0-1.7-1.3-3-3-3h-9c-1.7,0-3,1.3-3,3V466.9z"/>
	</g>
	<g>
		<path fill="#FFFFFF" d="M230.8,496.9c0,1.7,1.3,3,3,3h9c1.7,0,3-1.3,3-3v-9c0-1.7-1.3-3-3-3h-9c-1.7,0-3,1.3-3,3V496.9z"/>
	</g>
	<g>
		<path fill="#FFFFFF" d="M260.8,496.9c0,1.7,1.3,3,3,3h9c1.7,0,3-1.3,3-3v-9c0-1.7-1.3-3-3-3h-9c-1.7,0-3,1.3-3,3V496.9z"/>
	</g>
	<g>
		<path fill="#FFFFFF" d="M275.8,466.9c0,1.7,1.3,3,3,3h9c1.7,0,3-1.3,3-3v-9c0-1.7-1.3-3-3-3h-9c-1.7,0-3,1.3-3,3V466.9z"/>
	</g>
	<g>
		<path fill="#FFFFFF" d="M290.8,496.9c0,1.7,1.3,3,3,3h9c1.7,0,3-1.3,3-3v-9c0-1.7-1.3-3-3-3h-9c-1.7,0-3,1.3-3,3V496.9z"/>
	</g>
	<g>
		<path fill="#FFFFFF" d="M245.8,466.9c0,1.7,1.3,3,3,3h9c1.7,0,3-1.3,3-3v-9c0-1.7-1.3-3-3-3h-9c-1.7,0-3,1.3-3,3V466.9z"/>
	</g>
	<g>
		<path fill="#FFFFFF" d="M215.8,466.9c0,1.7,1.3,3,3,3h9c1.7,0,3-1.3,3-3v-9c0-1.7-1.3-3-3-3h-9c-1.7,0-3,1.3-3,3V466.9z"/>
	</g>
	<g>
		<path fill="#FFFFFF" d="M155.8,466.9c0,1.7,1.3,3,3,3h9c1.7,0,3-1.3,3-3v-9c0-1.7-1.3-3-3-3h-9c-1.7,0-3,1.3-3,3V466.9z"/>
	</g>
	<g>
		<path fill="#FFFFFF" d="M305.8,466.9c0,1.7,1.3,3,3,3h9c1.7,0,3-1.3,3-3v-9c0-1.7-1.3-3-3-3h-9c-1.7,0-3,1.3-3,3V466.9z"/>
	</g>
	<g>
		<path fill="#FFFFFF" d="M335.8,466.1c0,2.1,1.7,3.9,3.9,3.9h17.2c2.1,0,3.9-1.7,3.9-3.9v-7.2c0-2.1-1.7-3.9-3.9-3.9h-17.2
			c-2.1,0-3.9,1.7-3.9,3.9V466.1z"/>
	</g>
	<g>
		<path fill="#FFFFFF" d="M321.1,496.9c0,1.7,1.3,3,3,3h9c1.7,0,3-1.3,3-3v-9c0-1.7-1.3-3-3-3h-9c-1.7,0-3,1.3-3,3V496.9z"/>
	</g>
	<g>
		<path fill="#FFFFFF" d="M350.8,494.7c0,2.9,2.3,5.2,5.2,5.2h4.6c2.9,0,5.2-2.3,5.2-5.2v-34.6c0-2.9-2.3-5.2-5.2-5.2H356
			c-2.9,0-5.2,2.3-5.2,5.2V494.7z"/>
	</g>
	<g>
		<path fill="#FFFFFF" d="M190.8,526.9c0,1.7,1.3,3,3,3h9c1.7,0,3-1.3,3-3v-9c0-1.7-1.3-3-3-3h-9c-1.7,0-3,1.3-3,3V526.9z"/>
	</g>
	<g>
		<path fill="#FFFFFF" d="M340.8,527.3c0,1.5,1.2,2.7,2.7,2.7h19.5c1.5,0,2.7-1.2,2.7-2.7v-9.6c0-1.5-1.2-2.7-2.7-2.7h-19.5
			c-1.5,0-2.7,1.2-2.7,2.7V527.3z"/>
	</g>
	<g>
		<path fill="#FFFFFF" d="M315.8,526.9c0,1.7,1.3,3,3,3h9c1.7,0,3-1.3,3-3v-9c0-1.7-1.3-3-3-3h-9c-1.7,0-3,1.3-3,3V526.9z"/>
	</g>
	<g>
		<path fill="#FFFFFF" d="M658,432.6H424.4c-6.1,0-11,4.9-11,11V542c0,6.1,4.9,11,11,11H658c6.1,0,11-4.9,11-11v-98.4
			C669,437.6,664.1,432.6,658,432.6L658,432.6z M421.4,443.6c0-1.7,1.3-3,3-3H658c1.7,0,3,1.3,3,3V542l0,0l0,0c0,1.7-1.3,3-3,3
			H424.4c-1.7,0-3-1.3-3-3V443.6L421.4,443.6L421.4,443.6z"/>
	</g>
	<g>
		<path fill="#FFFFFF" d="M436.6,496.9c0,1.7,1.3,3,3,3h24c1.7,0,3-1.3,3-3v-9c0-1.7-1.3-3-3-3h-24c-1.7,0-3,1.3-3,3V496.9z"/>
		<path fill="none" stroke="#FFFFFF" d="M436.6,496.9c0,1.7,1.3,3,3,3h24c1.7,0,3-1.3,3-3v-9c0-1.7-1.3-3-3-3h-24c-1.7,0-3,1.3-3,3
			V496.9z"/>
	</g>
	<g>
		<path fill="#FFFFFF" d="M436.5,527.2c0,1.5,1.2,2.7,2.7,2.7h19.6c1.5,0,2.7-1.2,2.7-2.7v-9.5c0-1.5-1.2-2.7-2.7-2.7h-19.6
			c-1.5,0-2.7,1.2-2.7,2.7V527.2z"/>
		<path fill="none" stroke="#FFFFFF" d="M436.5,527.2c0,1.5,1.2,2.7,2.7,2.7h19.6c1.5,0,2.7-1.2,2.7-2.7v-9.5c0-1.5-1.2-2.7-2.7-2.7
			h-19.6c-1.5,0-2.7,1.2-2.7,2.7V527.2z"/>
	</g>
	<g>
		<path fill="#FFFFFF" d="M496.5,527.1c0,1.5,1.2,2.8,2.8,2.8h84.4c1.5,0,2.8-1.2,2.8-2.8v-9.4c0-1.5-1.2-2.8-2.8-2.8h-84.4
			c-1.5,0-2.8,1.2-2.8,2.8V527.1z"/>
		<path fill="none" stroke="#FFFFFF" d="M496.5,527.1c0,1.5,1.2,2.8,2.8,2.8h84.4c1.5,0,2.8-1.2,2.8-2.8v-9.4c0-1.5-1.2-2.8-2.8-2.8
			h-84.4c-1.5,0-2.8,1.2-2.8,2.8V527.1z"/>
	</g>
	<g>
		<path fill="#FFFFFF" d="M481.5,496.9c0,1.7,1.3,3,3,3h9c1.7,0,3-1.3,3-3v-9c0-1.7-1.3-3-3-3h-9c-1.7,0-3,1.3-3,3V496.9z"/>
		<path fill="none" stroke="#FFFFFF" d="M481.5,496.9c0,1.7,1.3,3,3,3h9c1.7,0,3-1.3,3-3v-9c0-1.7-1.3-3-3-3h-9c-1.7,0-3,1.3-3,3
			V496.9z"/>
	</g>
	<g>
		<path fill="#FFFFFF" d="M466.5,466.9c0,1.7,1.3,3,3,3h9c1.7,0,3-1.3,3-3v-9c0-1.7-1.3-3-3-3h-9c-1.7,0-3,1.3-3,3V466.9z"/>
		<path fill="none" stroke="#FFFFFF" d="M466.5,466.9c0,1.7,1.3,3,3,3h9c1.7,0,3-1.3,3-3v-9c0-1.7-1.3-3-3-3h-9c-1.7,0-3,1.3-3,3
			V466.9z"/>
	</g>
	<g>
		<path fill="#FFFFFF" d="M511.5,496.9c0,1.7,1.3,3,3,3h9c1.7,0,3-1.3,3-3v-9c0-1.7-1.3-3-3-3h-9c-1.7,0-3,1.3-3,3V496.9z"/>
		<path fill="none" stroke="#FFFFFF" d="M511.5,496.9c0,1.7,1.3,3,3,3h9c1.7,0,3-1.3,3-3v-9c0-1.7-1.3-3-3-3h-9c-1.7,0-3,1.3-3,3
			V496.9z"/>
	</g>
	<g>
		<path fill="#FFFFFF" d="M541.5,496.9c0,1.7,1.3,3,3,3h9c1.7,0,3-1.3,3-3v-9c0-1.7-1.3-3-3-3h-9c-1.7,0-3,1.3-3,3V496.9z"/>
		<path fill="none" stroke="#FFFFFF" d="M541.5,496.9c0,1.7,1.3,3,3,3h9c1.7,0,3-1.3,3-3v-9c0-1.7-1.3-3-3-3h-9c-1.7,0-3,1.3-3,3
			V496.9z"/>
	</g>
	<g>
		<path fill="#FFFFFF" d="M556.5,466.9c0,1.7,1.3,3,3,3h9c1.7,0,3-1.3,3-3v-9c0-1.7-1.3-3-3-3h-9c-1.7,0-3,1.3-3,3V466.9z"/>
		<path fill="none" stroke="#FFFFFF" d="M556.5,466.9c0,1.7,1.3,3,3,3h9c1.7,0,3-1.3,3-3v-9c0-1.7-1.3-3-3-3h-9c-1.7,0-3,1.3-3,3
			V466.9z"/>
	</g>
	<g>
		<path fill="#FFFFFF" d="M571.5,496.9c0,1.7,1.3,3,3,3h9c1.7,0,3-1.3,3-3v-9c0-1.7-1.3-3-3-3h-9c-1.7,0-3,1.3-3,3V496.9z"/>
		<path fill="none" stroke="#FFFFFF" d="M571.5,496.9c0,1.7,1.3,3,3,3h9c1.7,0,3-1.3,3-3v-9c0-1.7-1.3-3-3-3h-9c-1.7,0-3,1.3-3,3
			V496.9z"/>
	</g>
	<g>
		<path fill="#FFFFFF" d="M526.5,466.9c0,1.7,1.3,3,3,3h9c1.7,0,3-1.3,3-3v-9c0-1.7-1.3-3-3-3h-9c-1.7,0-3,1.3-3,3V466.9z"/>
		<path fill="none" stroke="#FFFFFF" d="M526.5,466.9c0,1.7,1.3,3,3,3h9c1.7,0,3-1.3,3-3v-9c0-1.7-1.3-3-3-3h-9c-1.7,0-3,1.3-3,3
			V466.9z"/>
	</g>
	<g>
		<path fill="#FFFFFF" d="M496.5,466.9c0,1.7,1.3,3,3,3h9c1.7,0,3-1.3,3-3v-9c0-1.7-1.3-3-3-3h-9c-1.7,0-3,1.3-3,3V466.9z"/>
		<path fill="none" stroke="#FFFFFF" d="M496.5,466.9c0,1.7,1.3,3,3,3h9c1.7,0,3-1.3,3-3v-9c0-1.7-1.3-3-3-3h-9c-1.7,0-3,1.3-3,3
			V466.9z"/>
	</g>
	<g>
		<path fill="#FFFFFF" d="M436.5,466.9c0,1.7,1.3,3,3,3h9c1.7,0,3-1.3,3-3v-9c0-1.7-1.3-3-3-3h-9c-1.7,0-3,1.3-3,3V466.9z"/>
		<path fill="none" stroke="#FFFFFF" d="M436.5,466.9c0,1.7,1.3,3,3,3h9c1.7,0,3-1.3,3-3v-9c0-1.7-1.3-3-3-3h-9c-1.7,0-3,1.3-3,3
			V466.9z"/>
	</g>
	<g>
		<path fill="#FFFFFF" d="M586.5,466.9c0,1.7,1.3,3,3,3h9c1.7,0,3-1.3,3-3v-9c0-1.7-1.3-3-3-3h-9c-1.7,0-3,1.3-3,3V466.9z"/>
		<path fill="none" stroke="#FFFFFF" d="M586.5,466.9c0,1.7,1.3,3,3,3h9c1.7,0,3-1.3,3-3v-9c0-1.7-1.3-3-3-3h-9c-1.7,0-3,1.3-3,3
			V466.9z"/>
	</g>
	<g>
		<path fill="#FFFFFF" d="M616.5,466.1c0,2.1,1.7,3.9,3.9,3.9h17.2c2.1,0,3.9-1.7,3.9-3.9v-7.2c0-2.1-1.7-3.9-3.9-3.9h-17.2
			c-2.1,0-3.9,1.7-3.9,3.9V466.1z"/>
		<path fill="none" stroke="#FFFFFF" d="M616.5,466.1c0,2.1,1.7,3.9,3.9,3.9h17.2c2.1,0,3.9-1.7,3.9-3.9v-7.2c0-2.1-1.7-3.9-3.9-3.9
			h-17.2c-2.1,0-3.9,1.7-3.9,3.9V466.1z"/>
	</g>
	<g>
		<path fill="#FFFFFF" d="M601.8,496.9c0,1.7,1.3,3,3,3h9c1.7,0,3-1.3,3-3v-9c0-1.7-1.3-3-3-3h-9c-1.7,0-3,1.3-3,3V496.9z"/>
		<path fill="none" stroke="#FFFFFF" d="M601.8,496.9c0,1.7,1.3,3,3,3h9c1.7,0,3-1.3,3-3v-9c0-1.7-1.3-3-3-3h-9c-1.7,0-3,1.3-3,3
			V496.9z"/>
	</g>
	<g>
		<path fill="#FFFFFF" d="M631.5,494.7c0,2.9,2.3,5.2,5.2,5.2h4.6c2.9,0,5.2-2.3,5.2-5.2v-34.6c0-2.9-2.3-5.2-5.2-5.2h-4.6
			c-2.9,0-5.2,2.3-5.2,5.2V494.7z"/>
		<path fill="none" stroke="#FFFFFF" d="M631.5,494.7c0,2.9,2.3,5.2,5.2,5.2h4.6c2.9,0,5.2-2.3,5.2-5.2v-34.6c0-2.9-2.3-5.2-5.2-5.2
			h-4.6c-2.9,0-5.2,2.3-5.2,5.2V494.7z"/>
	</g>
	<g>
		<path fill="#FFFFFF" d="M471.5,526.9c0,1.7,1.3,3,3,3h9c1.7,0,3-1.3,3-3v-9c0-1.7-1.3-3-3-3h-9c-1.7,0-3,1.3-3,3V526.9z"/>
		<path fill="none" stroke="#FFFFFF" d="M471.5,526.9c0,1.7,1.3,3,3,3h9c1.7,0,3-1.3,3-3v-9c0-1.7-1.3-3-3-3h-9c-1.7,0-3,1.3-3,3
			V526.9z"/>
	</g>
	<g>
		<path fill="#FFFFFF" d="M621.5,527.3c0,1.5,1.2,2.7,2.7,2.7h19.5c1.5,0,2.7-1.2,2.7-2.7v-9.6c0-1.5-1.2-2.7-2.7-2.7h-19.5
			c-1.5,0-2.7,1.2-2.7,2.7V527.3z"/>
		<path fill="none" stroke="#FFFFFF" d="M621.5,527.3c0,1.5,1.2,2.7,2.7,2.7h19.5c1.5,0,2.7-1.2,2.7-2.7v-9.6c0-1.5-1.2-2.7-2.7-2.7
			h-19.5c-1.5,0-2.7,1.2-2.7,2.7V527.3z"/>
	</g>
	<g>
		<path fill="#FFFFFF" d="M596.5,526.9c0,1.7,1.3,3,3,3h9c1.7,0,3-1.3,3-3v-9c0-1.7-1.3-3-3-3h-9c-1.7,0-3,1.3-3,3V526.9z"/>
		<path fill="none" stroke="#FFFFFF" d="M596.5,526.9c0,1.7,1.3,3,3,3h9c1.7,0,3-1.3,3-3v-9c0-1.7-1.3-3-3-3h-9c-1.7,0-3,1.3-3,3
			V526.9z"/>
	</g>
	<g>
		<path fill="#FFFFFF" d="M517.6,292.6H284c-6.1,0-11,4.9-11,11V402c0,6.1,4.9,11,11,11h233.6c6.1,0,11-4.9,11-11v-98.4
			C528.6,297.6,523.7,292.6,517.6,292.6L517.6,292.6z M281,303.6c0-1.7,1.3-3,3-3h233.6c1.7,0,3,1.3,3,3V402l0,0l0,0
			c0,1.7-1.3,3-3,3H284c-1.7,0-3-1.3-3-3V303.6L281,303.6L281,303.6z"/>
	</g>
	<g>
		<path fill="#FFFFFF" d="M295.8,356.9c0,1.7,1.3,3,3,3h24c1.7,0,3-1.3,3-3v-9c0-1.7-1.3-3-3-3h-24c-1.7,0-3,1.3-3,3V356.9z"/>
	</g>
	<g>
		<path fill="#FFFFFF" d="M295.8,387.2c0,1.5,1.2,2.7,2.7,2.7h19.6c1.5,0,2.7-1.2,2.7-2.7v-9.5c0-1.5-1.2-2.7-2.7-2.7h-19.6
			c-1.5,0-2.7,1.2-2.7,2.7V387.2z"/>
	</g>
	<g>
		<path fill="#FFFFFF" d="M355.8,387.1c0,1.5,1.2,2.8,2.8,2.8h84.4c1.5,0,2.8-1.2,2.8-2.8v-9.4c0-1.5-1.2-2.8-2.8-2.8h-84.4
			c-1.5,0-2.8,1.2-2.8,2.8V387.1z"/>
	</g>
	<g>
		<path fill="#FFFFFF" d="M340.8,356.9c0,1.7,1.3,3,3,3h9c1.7,0,3-1.3,3-3v-9c0-1.7-1.3-3-3-3h-9c-1.7,0-3,1.3-3,3V356.9z"/>
	</g>
	<g>
		<path fill="#FFFFFF" d="M325.8,326.9c0,1.7,1.3,3,3,3h9c1.7,0,3-1.3,3-3v-9c0-1.7-1.3-3-3-3h-9c-1.7,0-3,1.3-3,3V326.9z"/>
	</g>
	<g>
		<path fill="#FFFFFF" d="M370.8,356.9c0,1.7,1.3,3,3,3h9c1.7,0,3-1.3,3-3v-9c0-1.7-1.3-3-3-3h-9c-1.7,0-3,1.3-3,3V356.9z"/>
	</g>
	<g>
		<path fill="#FFFFFF" d="M400.8,356.9c0,1.7,1.3,3,3,3h9c1.7,0,3-1.3,3-3v-9c0-1.7-1.3-3-3-3h-9c-1.7,0-3,1.3-3,3V356.9z"/>
	</g>
	<g>
		<path fill="#FFFFFF" d="M415.8,326.9c0,1.7,1.3,3,3,3h9c1.7,0,3-1.3,3-3v-9c0-1.7-1.3-3-3-3h-9c-1.7,0-3,1.3-3,3V326.9z"/>
	</g>
	<g>
		<path fill="#FFFFFF" d="M430.8,356.9c0,1.7,1.3,3,3,3h9c1.7,0,3-1.3,3-3v-9c0-1.7-1.3-3-3-3h-9c-1.7,0-3,1.3-3,3V356.9z"/>
	</g>
	<g>
		<path fill="#FFFFFF" d="M385.8,326.9c0,1.7,1.3,3,3,3h9c1.7,0,3-1.3,3-3v-9c0-1.7-1.3-3-3-3h-9c-1.7,0-3,1.3-3,3V326.9z"/>
	</g>
	<g>
		<path fill="#FFFFFF" d="M355.8,326.9c0,1.7,1.3,3,3,3h9c1.7,0,3-1.3,3-3v-9c0-1.7-1.3-3-3-3h-9c-1.7,0-3,1.3-3,3V326.9z"/>
	</g>
	<g>
		<path fill="#FFFFFF" d="M295.8,326.9c0,1.7,1.3,3,3,3h9c1.7,0,3-1.3,3-3v-9c0-1.7-1.3-3-3-3h-9c-1.7,0-3,1.3-3,3V326.9z"/>
	</g>
	<g>
		<path fill="#FFFFFF" d="M445.8,326.9c0,1.7,1.3,3,3,3h9c1.7,0,3-1.3,3-3v-9c0-1.7-1.3-3-3-3h-9c-1.7,0-3,1.3-3,3V326.9z"/>
	</g>
	<g>
		<path fill="#FFFFFF" d="M475.8,326.1c0,2.1,1.7,3.9,3.9,3.9h17.2c2.1,0,3.9-1.7,3.9-3.9v-7.2c0-2.1-1.7-3.9-3.9-3.9h-17.2
			c-2.1,0-3.9,1.7-3.9,3.9V326.1z"/>
	</g>
	<g>
		<path fill="#FFFFFF" d="M461.1,356.9c0,1.7,1.3,3,3,3h9c1.7,0,3-1.3,3-3v-9c0-1.7-1.3-3-3-3h-9c-1.7,0-3,1.3-3,3V356.9z"/>
	</g>
	<g>
		<path fill="#FFFFFF" d="M490.8,354.7c0,2.9,2.3,5.2,5.2,5.2h4.6c2.9,0,5.2-2.3,5.2-5.2v-34.6c0-2.9-2.3-5.2-5.2-5.2H496
			c-2.9,0-5.2,2.3-5.2,5.2V354.7z"/>
	</g>
	<g>
		<path fill="#FFFFFF" d="M330.8,386.9c0,1.7,1.3,3,3,3h9c1.7,0,3-1.3,3-3v-9c0-1.7-1.3-3-3-3h-9c-1.7,0-3,1.3-3,3V386.9z"/>
	</g>
	<g>
		<path fill="#FFFFFF" d="M480.8,387.3c0,1.5,1.2,2.7,2.7,2.7h19.5c1.5,0,2.7-1.2,2.7-2.7v-9.6c0-1.5-1.2-2.7-2.7-2.7h-19.5
			c-1.5,0-2.7,1.2-2.7,2.7V387.3z"/>
	</g>
	<g>
		<path fill="#FFFFFF" d="M455.8,386.9c0,1.7,1.3,3,3,3h9c1.7,0,3-1.3,3-3v-9c0-1.7-1.3-3-3-3h-9c-1.7,0-3,1.3-3,3V386.9z"/>
	</g>
	<g>
		<path fill="#FFFFFF" d="M148,633c0,8.7-2.2,15.5-6.5,20.2s-10.6,7-18.6,7s-14.3-2.3-18.6-7s-6.5-11.4-6.5-20.2
			c0-8.8,2.2-15.5,6.5-20.1c4.3-4.6,10.6-7,18.7-7c8.1,0,14.3,2.3,18.6,7C145.9,617.5,148,624.2,148,633z M109.5,633
			c0,5.9,1.1,10.3,3.4,13.3c2.2,3,5.6,4.5,10,4.5c8.9,0,13.4-5.9,13.4-17.8c0-11.9-4.4-17.8-13.3-17.8c-4.5,0-7.8,1.5-10.1,4.5
			C110.6,622.6,109.5,627.1,109.5,633z"/>
		<path fill="#FFFFFF" d="M180.3,660.2c-4.7,0-8.5-1.7-11.2-5.2h-0.6c0.4,3.4,0.6,5.3,0.6,5.9v16.4h-11v-58.2h9l1.6,5.2h0.5
			c2.6-4,6.4-6,11.5-6c4.8,0,8.5,1.8,11.2,5.5c2.7,3.7,4,8.8,4,15.4c0,4.3-0.6,8.1-1.9,11.2s-3.1,5.6-5.4,7.3
			C186.2,659.3,183.4,660.2,180.3,660.2z M177,627.1c-2.7,0-4.7,0.8-6,2.5c-1.3,1.7-1.9,4.4-2,8.3v1.2c0,4.3,0.6,7.4,1.9,9.3
			c1.3,1.9,3.3,2.8,6.1,2.8c4.9,0,7.4-4.1,7.4-12.2c0-4-0.6-7-1.8-8.9C181.6,628.1,179.6,627.1,177,627.1z"/>
		<path fill="#FFFFFF" d="M223.2,660.2c-6.5,0-11.6-1.8-15.2-5.4c-3.7-3.6-5.5-8.7-5.5-15.2c0-6.8,1.7-12,5.1-15.7
			c3.4-3.7,8.1-5.5,14-5.5c5.7,0,10.2,1.6,13.3,4.9s4.8,7.7,4.8,13.5v5.3h-26.1c0.1,3.1,1,5.6,2.8,7.3c1.7,1.8,4.2,2.6,7.3,2.6
			c2.4,0,4.7-0.3,6.9-0.8s4.4-1.3,6.8-2.4v8.5c-1.9,1-4,1.7-6.2,2.1C229,659.9,226.4,660.2,223.2,660.2z M221.7,626.1
			c-2.3,0-4.2,0.7-5.5,2.2c-1.3,1.5-2.1,3.6-2.3,6.3h15.5c0-2.7-0.8-4.8-2.1-6.3C225.9,626.9,224,626.1,221.7,626.1z"/>
		<path fill="#FFFFFF" d="M285.9,659.5h-11v-23.6c0-2.9-0.5-5.1-1.6-6.6c-1-1.5-2.7-2.2-5-2.2c-3.1,0-5.3,1-6.7,3.1
			c-1.4,2.1-2.1,5.5-2.1,10.2v19h-11v-40.4h8.4l1.5,5.2h0.6c1.2-2,2.9-3.4,5.1-4.4c2.2-1,4.6-1.5,7.4-1.5c4.7,0,8.3,1.3,10.7,3.8
			c2.4,2.5,3.6,6.2,3.6,11V659.5z"/>
		<path fill="#FFFFFF" d="M318.5,659.5h-11.2V616H293v-9.3h39.9v9.3h-14.3V659.5z"/>
		<path fill="#FFFFFF" d="M358.4,660.2c-6.5,0-11.6-1.8-15.2-5.4c-3.7-3.6-5.5-8.7-5.5-15.2c0-6.8,1.7-12,5.1-15.7
			c3.4-3.7,8.1-5.5,14-5.5c5.7,0,10.2,1.6,13.3,4.9s4.8,7.7,4.8,13.5v5.3h-26.1c0.1,3.1,1,5.6,2.8,7.3c1.7,1.8,4.2,2.6,7.3,2.6
			c2.4,0,4.7-0.3,6.9-0.8s4.4-1.3,6.8-2.4v8.5c-1.9,1-4,1.7-6.2,2.1C364.3,659.9,361.6,660.2,358.4,660.2z M356.9,626.1
			c-2.3,0-4.2,0.7-5.5,2.2c-1.3,1.5-2.1,3.6-2.3,6.3h15.5c0-2.7-0.8-4.8-2.1-6.3C361.1,626.9,359.2,626.1,356.9,626.1z"/>
		<path fill="#FFFFFF" d="M400.3,660.2c-12.6,0-18.9-6.9-18.9-20.7c0-6.9,1.7-12.1,5.1-15.7c3.4-3.6,8.3-5.4,14.7-5.4
			c4.7,0,8.9,0.9,12.6,2.7l-3.3,8.5c-1.7-0.7-3.3-1.3-4.8-1.7c-1.5-0.4-3-0.7-4.5-0.7c-5.7,0-8.6,4.1-8.6,12.2
			c0,7.9,2.9,11.9,8.6,11.9c2.1,0,4.1-0.3,5.9-0.8c1.8-0.6,3.6-1.5,5.4-2.7v9.4c-1.8,1.1-3.6,1.9-5.4,2.3
			C405.3,660,403,660.2,400.3,660.2z"/>
		<path fill="#FFFFFF" d="M459.2,659.5h-11v-23.6c0-5.8-2.2-8.7-6.5-8.7c-3.1,0-5.3,1-6.7,3.1s-2.1,5.5-2.1,10.2v19h-11v-56.2h11
			v11.5c0,0.9-0.1,3-0.3,6.3l-0.3,3.3h0.6c2.5-4,6.4-5.9,11.7-5.9c4.7,0,8.3,1.3,10.8,3.8c2.5,2.6,3.7,6.2,3.7,11V659.5z"/>
		<path fill="#FFFFFF" d="M502.6,644.8c0,4.8-1.7,8.5-5.1,11.3c-3.4,2.7-8.2,4.1-14.3,4.1c-5.6,0-10.6-1.1-15-3.2v-10.4
			c3.6,1.6,6.6,2.7,9.1,3.4c2.5,0.7,4.7,1,6.8,1c2.5,0,4.3-0.5,5.7-1.4c1.3-0.9,2-2.3,2-4.2c0-1-0.3-2-0.9-2.8
			c-0.6-0.8-1.4-1.6-2.5-2.3c-1.1-0.7-3.4-1.9-6.8-3.6c-3.2-1.5-5.6-3-7.3-4.4c-1.6-1.4-2.9-3-3.9-4.9c-1-1.9-1.4-4-1.4-6.5
			c0-4.7,1.6-8.3,4.8-11c3.2-2.7,7.5-4,13.1-4c2.7,0,5.4,0.3,7.9,1c2.5,0.7,5.1,1.6,7.8,2.7l-3.6,8.7c-2.8-1.2-5.1-2-7-2.4
			c-1.8-0.5-3.7-0.7-5.4-0.7c-2.1,0-3.7,0.5-4.9,1.5c-1.1,1-1.7,2.3-1.7,3.9c0,1,0.2,1.8,0.7,2.6c0.5,0.7,1.2,1.4,2.2,2.1
			c1,0.7,3.4,1.9,7.1,3.7c4.9,2.4,8.3,4.7,10.2,7.1C501.7,638.4,502.6,641.3,502.6,644.8z"/>
		<path fill="#FFFFFF" d="M527.7,660.2c-12.6,0-18.9-6.9-18.9-20.7c0-6.9,1.7-12.1,5.1-15.7c3.4-3.6,8.3-5.4,14.7-5.4
			c4.7,0,8.9,0.9,12.6,2.7l-3.3,8.5c-1.7-0.7-3.3-1.3-4.8-1.7c-1.5-0.4-3-0.7-4.5-0.7c-5.7,0-8.6,4.1-8.6,12.2
			c0,7.9,2.9,11.9,8.6,11.9c2.1,0,4.1-0.3,5.9-0.8c1.8-0.6,3.6-1.5,5.4-2.7v9.4c-1.8,1.1-3.6,1.9-5.4,2.3
			C532.8,660,530.5,660.2,527.7,660.2z"/>
		<path fill="#FFFFFF" d="M586.6,659.5h-11v-23.6c0-5.8-2.2-8.7-6.5-8.7c-3.1,0-5.3,1-6.7,3.1s-2.1,5.5-2.1,10.2v19h-11v-56.2h11
			v11.5c0,0.9-0.1,3-0.3,6.3l-0.3,3.3h0.6c2.5-4,6.4-5.9,11.7-5.9c4.7,0,8.3,1.3,10.8,3.8c2.5,2.6,3.7,6.2,3.7,11V659.5z"/>
		<path fill="#FFFFFF" d="M634.7,639.2c0,6.6-1.7,11.7-5.2,15.4c-3.5,3.7-8.3,5.6-14.5,5.6c-3.9,0-7.3-0.8-10.3-2.5
			c-3-1.7-5.2-4.1-6.8-7.3s-2.4-6.9-2.4-11.1c0-6.6,1.7-11.7,5.2-15.4c3.4-3.7,8.3-5.5,14.5-5.5c3.9,0,7.3,0.8,10.3,2.5
			c3,1.7,5.2,4.1,6.8,7.3C633.9,631.2,634.7,634.9,634.7,639.2z M606.8,639.2c0,4,0.7,7,2,9.1c1.3,2,3.5,3.1,6.4,3.1
			c2.9,0,5.1-1,6.3-3.1c1.3-2,1.9-5.1,1.9-9.1c0-4-0.7-7-2-9c-1.3-2-3.4-3-6.4-3c-2.9,0-5.1,1-6.4,3
			C607.4,632.2,606.8,635.2,606.8,639.2z"/>
		<path fill="#FFFFFF" d="M680.5,639.2c0,6.6-1.7,11.7-5.2,15.4c-3.5,3.7-8.3,5.6-14.5,5.6c-3.9,0-7.3-0.8-10.3-2.5
			c-3-1.7-5.2-4.1-6.8-7.3s-2.4-6.9-2.4-11.1c0-6.6,1.7-11.7,5.2-15.4c3.4-3.7,8.3-5.5,14.5-5.5c3.9,0,7.3,0.8,10.3,2.5
			c3,1.7,5.2,4.1,6.8,7.3C679.7,631.2,680.5,634.9,680.5,639.2z M652.6,639.2c0,4,0.7,7,2,9.1c1.3,2,3.5,3.1,6.4,3.1
			c2.9,0,5.1-1,6.3-3.1c1.3-2,1.9-5.1,1.9-9.1c0-4-0.7-7-2-9c-1.3-2-3.4-3-6.4-3c-2.9,0-5.1,1-6.4,3
			C653.2,632.2,652.6,635.2,652.6,639.2z"/>
		<path fill="#FFFFFF" d="M700.6,659.5h-11v-56.2h11V659.5z"/>
	</g>
	<g>
		<path fill="#FFFFFF" d="M457.1,707.5V697c0-4.3-3.5-7.7-7.7-7.7c-4.3,0-7.7,3.5-7.7,7.7v43.1c0,4.3,3.5,7.7,7.7,7.7
			c4.3,0,7.7-3.5,7.7-7.7V731h5.1v9.1c0,7.1-5.7,12.9-12.9,12.9s-12.9-5.7-12.9-12.9V697c0-7.1,5.7-12.9,12.9-12.9
			s12.9,5.7,12.9,12.9v9.9L457.1,707.5z"/>
		<path fill="#FFFFFF" d="M469.2,713.8c0-5.9,4.8-10.7,10.7-10.7c5.9,0,10.7,4.8,10.7,10.7v27.9c0,5.9-4.8,10.7-10.7,10.7
			c-5.9,0-10.7-4.8-10.7-10.7V713.8z M474.4,741.8c0,3.1,2.5,5.5,5.5,5.5c3.1,0,5.5-2.5,5.5-5.5v-27.9c0-3.1-2.5-5.5-5.5-5.5
			c-3.1,0-5.5,2.5-5.5,5.5V741.8z"/>
		<path fill="#FFFFFF" d="M498.5,752v-48.3h3.6l0.9,3.8c1.7-2.6,4.5-4.3,7.5-4.3c5.1,0,9.4,4.8,9.4,10.7V752h-5.1v-38.1
			c0-3.1-2.5-5.5-5.5-5.5s-5.5,2.5-5.5,5.5V752H498.5z"/>
		<path fill="#FFFFFF" d="M525.1,703.6h5.3v-9c0-5.2,4.3-9.5,9.5-9.5h1.9v5.1h-1.9c-2.4,0-4.4,2-4.4,4.4v9h6.2v5.1h-6.2V752h-5.1
			v-43.2h-5.3V703.6z"/>
		<path fill="#FFFFFF" d="M567.7,735.4v6.3c0,5.9-4.8,10.7-10.7,10.7c-5.9,0-10.7-4.8-10.7-10.7v-27.9c0-5.9,4.8-10.7,10.7-10.7
			c5.9,0,10.7,4.8,10.7,10.7v14.8h-16.2v13.1c0,3.1,2.5,5.5,5.5,5.5c3.1,0,5.5-2.5,5.5-5.5V736L567.7,735.4z M551.5,723.5h11.1v-9.7
			c0-3.1-2.5-5.5-5.5-5.5c-3.1,0-5.5,2.5-5.5,5.5V723.5z"/>
		<path fill="#FFFFFF" d="M590,708.3h-3.7c-3.4,0-5.9,2.7-5.9,6V752h-5.1v-48.3h3.6l0.9,3.8c1.7-2.6,5-4.3,10.3-4.3V708.3z"/>
		<path fill="#FFFFFF" d="M615.7,735.4v6.3c0,5.9-4.8,10.7-10.7,10.7c-5.9,0-10.7-4.8-10.7-10.7v-27.9c0-5.9,4.8-10.7,10.7-10.7
			c5.9,0,10.7,4.8,10.7,10.7v14.8h-16.2v13.1c0,3.1,2.5,5.5,5.5,5.5c3.1,0,5.5-2.5,5.5-5.5V736L615.7,735.4z M599.4,723.5h11.1v-9.7
			c0-3.1-2.5-5.5-5.5-5.5c-3.1,0-5.5,2.5-5.5,5.5V723.5z"/>
		<path fill="#FFFFFF" d="M623.2,752v-48.3h3.6l0.9,3.8c1.7-2.6,4.5-4.3,7.5-4.3c5.1,0,9.4,4.8,9.4,10.7V752h-5.1v-38.1
			c0-3.1-2.5-5.5-5.5-5.5c-3.1,0-5.5,2.5-5.5,5.5V752H623.2z"/>
		<path fill="#FFFFFF" d="M673.8,736v5.7c0,5.9-4.8,10.7-10.7,10.7c-5.9,0-10.7-4.8-10.7-10.7v-27.9c0-5.9,4.8-10.7,10.7-10.7
			c5.9,0,10.7,4.8,10.7,10.7v5.6l-5.1,0.6v-6.2c0-3.1-2.5-5.5-5.5-5.5c-3.1,0-5.5,2.5-5.5,5.5v27.9c0,3.1,2.5,5.5,5.5,5.5
			c3.1,0,5.5-2.5,5.5-5.5V736H673.8z"/>
		<path fill="#FFFFFF" d="M701.8,735.4v6.3c0,5.9-4.8,10.7-10.7,10.7c-5.9,0-10.7-4.8-10.7-10.7v-27.9c0-5.9,4.8-10.7,10.7-10.7
			c5.9,0,10.7,4.8,10.7,10.7v14.8h-16.2v13.1c0,3.1,2.5,5.5,5.5,5.5c3.1,0,5.5-2.5,5.5-5.5V736L701.8,735.4z M685.5,723.5h11.1v-9.7
			c0-3.1-2.5-5.5-5.5-5.5c-3.1,0-5.5,2.5-5.5,5.5V723.5z"/>
	</g>
</g>
</svg>
